<svg width="188" height="27" viewBox="0 0 188 27" fill="none" xmlns="http://www.w3.org/2000/svg">
<path d="M13.0211 1.37471C13.5836 -0.352117 16.0266 -0.352117 16.5873 1.37471L18.5935 7.54704C18.716 7.92294 18.9543 8.25048 19.2742 8.48283C19.5941 8.71518 19.9793 8.84046 20.3747 8.84075H26.8657C28.6825 8.84075 29.4363 11.1657 27.9682 12.2344L22.7183 16.048C22.3978 16.2806 22.1591 16.6087 22.0365 16.9852C21.9139 17.3618 21.9137 17.7675 22.0359 18.1442L24.042 24.3166C24.6045 26.0434 22.6265 27.4815 21.1546 26.4128L15.9048 22.5991C15.5845 22.3666 15.199 22.2414 14.8032 22.2414C14.4075 22.2414 14.0219 22.3666 13.7017 22.5991L8.45186 26.4128C6.98191 27.4815 5.00571 26.0434 5.56632 24.3166L7.57251 18.1442C7.69471 17.7675 7.69449 17.3618 7.57189 16.9852C7.44928 16.6087 7.21059 16.2806 6.89003 16.048L1.64206 12.2363C0.173973 11.1676 0.929576 8.84262 2.74452 8.84262H9.23372C9.62942 8.84273 10.015 8.71764 10.3353 8.48526C10.6556 8.25287 10.8941 7.92512 11.0168 7.54891L13.023 1.37658L13.0211 1.37471Z" fill="#F2AE00"/>
<path d="M52.6152 1.37471C53.1777 -0.352117 55.6208 -0.352117 56.1814 1.37471L58.1876 7.54704C58.3101 7.92294 58.5484 8.25048 58.8683 8.48283C59.1882 8.71518 59.5734 8.84046 59.9688 8.84075H66.4598C68.2767 8.84075 69.0304 11.1657 67.5623 12.2344L62.3125 16.048C61.9919 16.2806 61.7532 16.6087 61.6306 16.9852C61.508 17.3618 61.5078 17.7675 61.63 18.1442L63.6362 24.3166C64.1986 26.0434 62.2206 27.4815 60.7487 26.4128L55.4989 22.5991C55.1787 22.3666 54.7931 22.2414 54.3974 22.2414C54.0016 22.2414 53.6161 22.3666 53.2958 22.5991L48.046 26.4128C46.576 27.4815 44.5998 26.0434 45.1604 24.3166L47.1666 18.1442C47.2888 17.7675 47.2886 17.3618 47.166 16.9852C47.0434 16.6087 46.8047 16.2806 46.4841 16.048L41.2362 12.2363C39.7681 11.1676 40.5237 8.84262 42.3386 8.84262H48.8278C49.2235 8.84273 49.6091 8.71764 49.9294 8.48526C50.2497 8.25287 50.4882 7.92512 50.6109 7.54891L52.6171 1.37658L52.6152 1.37471Z" fill="#F2AE00"/>
<path d="M87.64 26.4128L92.8899 22.5991C93.2101 22.3666 93.5957 22.2414 93.9914 22.2414C94.3871 22.2414 94.7727 22.3666 95.0929 22.5991L100.343 26.4128C101.815 27.4815 103.793 26.0434 103.23 24.3166L87.64 26.4128ZM87.64 26.4128C86.1701 27.4815 84.1939 26.0434 84.7545 24.3166L87.64 26.4128ZM92.6867 1.53114L92.713 1.45005L81.1241 11.8317C80.0471 11.0472 80.6031 9.34262 81.9327 9.34262H88.4218C88.4218 9.34262 88.4218 9.34262 88.4219 9.34262C88.9231 9.34273 89.4114 9.18428 89.8171 8.88995C90.2228 8.5956 90.525 8.18044 90.6803 7.70391L90.6805 7.70347L92.6867 1.53114ZM86.3718 15.6433L81.1245 11.832L95.3868 22.1946L95.3867 22.1945C94.9811 21.9 94.4927 21.7414 93.9914 21.7414C93.4902 21.7414 93.0018 21.9 92.5961 22.1945L92.596 22.1946L87.3462 26.0082L87.346 26.0083C86.2689 26.7915 84.8188 25.7383 85.23 24.4711C85.23 24.4711 85.23 24.471 85.2301 24.471L87.2362 18.2988L87.2363 18.2985C87.3911 17.8214 87.3908 17.3074 87.2355 16.8305C87.0802 16.3535 86.778 15.938 86.372 15.6435C86.372 15.6434 86.3719 15.6434 86.3718 15.6433Z" stroke="#F2AE00"/>
<path d="M127.234 26.4128L132.484 22.5991C132.804 22.3666 133.19 22.2414 133.586 22.2414C133.981 22.2414 134.367 22.3666 134.687 22.5991L139.937 26.4128C141.409 27.4815 143.387 26.0434 142.824 24.3166L127.234 26.4128ZM127.234 26.4128C125.764 27.4815 123.788 26.0434 124.349 24.3166L127.234 26.4128ZM132.281 1.53114L132.307 1.45005L120.718 11.8317C119.641 11.0472 120.197 9.34262 121.527 9.34262H128.016C128.016 9.34262 128.016 9.34262 128.016 9.34262C128.517 9.34273 129.006 9.18428 129.411 8.88995C129.817 8.5956 130.119 8.18044 130.274 7.70391L130.275 7.70347L132.281 1.53114ZM125.966 15.6433L120.719 11.832L134.981 22.1946L134.981 22.1945C134.575 21.9 134.087 21.7414 133.586 21.7414C133.084 21.7414 132.596 21.9 132.19 22.1945L132.19 22.1946L126.94 26.0082L126.94 26.0083C125.863 26.7915 124.413 25.7383 124.824 24.4711C124.824 24.4711 124.824 24.471 124.824 24.471L126.83 18.2988L126.83 18.2985C126.985 17.8214 126.985 17.3074 126.83 16.8305C126.674 16.3535 126.372 15.938 125.966 15.6435C125.966 15.6434 125.966 15.6434 125.966 15.6433Z" stroke="#F2AE00"/>
<path d="M174.423 1.55034L174.423 1.55015C174.041 0.374203 172.404 0.346569 171.965 1.47315L171.94 1.55221L169.934 7.72454L169.933 7.72504C169.774 8.21525 169.463 8.64233 169.045 8.94513C168.628 9.2479 168.126 9.41089 167.61 9.41079C167.61 9.41079 167.61 9.41079 167.61 9.41079H161.121C159.857 9.41079 159.329 11.0313 160.353 11.7769L165.6 15.5882C165.6 15.5882 165.6 15.5883 165.6 15.5883C166.018 15.8913 166.329 16.3188 166.489 16.8093C166.648 17.3 166.649 17.8287 166.489 18.3196L166.489 18.3199L164.483 24.492C164.092 25.6966 165.47 26.6974 166.494 25.9532L166.494 25.9531L171.744 22.1394L171.744 22.1393C172.162 21.8364 172.664 21.6733 173.18 21.6733C173.695 21.6733 174.198 21.8364 174.615 22.1393L174.615 22.1394L179.865 25.953C180.892 26.6991 182.27 25.6945 181.878 24.4925L181.878 24.4922L179.872 18.3199L179.872 18.3196C179.713 17.8287 179.713 17.3 179.873 16.8093C180.032 16.3188 180.343 15.8914 180.761 15.5884C180.761 15.5883 180.761 15.5883 180.761 15.5883C180.761 15.5882 180.761 15.5882 180.761 15.5882L186.01 11.7751L174.423 1.55034ZM174.423 1.55034L176.43 7.72266L176.43 7.72317M174.423 1.55034L176.43 7.72317M176.43 7.72317C176.589 8.21298 176.9 8.63977 177.317 8.94254C177.734 9.2453 178.235 9.40854 178.751 9.40891H178.751M176.43 7.72317L178.751 9.40891M178.751 9.40891H185.242M178.751 9.40891H185.242M185.242 9.40891C186.507 9.40891 187.035 11.0285 186.011 11.7747L185.242 9.40891Z" stroke="#F2AE00" stroke-width="1.13633"/>
</svg>
