<svg width="188" height="27" viewBox="0 0 188 27" fill="none" xmlns="http://www.w3.org/2000/svg">
<path d="M12.9516 1.37471C13.5141 -0.352117 15.9571 -0.352117 16.5177 1.37471L18.5239 7.54704C18.6465 7.92294 18.8848 8.25048 19.2047 8.48283C19.5246 8.71518 19.9097 8.84046 20.3051 8.84075H26.7962C28.613 8.84075 29.3667 11.1657 27.8987 12.2344L22.6488 16.048C22.3282 16.2806 22.0895 16.6087 21.9669 16.9852C21.8443 17.3618 21.8441 17.7675 21.9663 18.1442L23.9725 24.3166C24.535 26.0434 22.5569 27.4815 21.0851 26.4128L15.8352 22.5991C15.515 22.3666 15.1294 22.2414 14.7337 22.2414C14.338 22.2414 13.9524 22.3666 13.6322 22.5991L8.38233 26.4128C6.91237 27.4815 4.93618 26.0434 5.49679 24.3166L7.50298 18.1442C7.62518 17.7675 7.62496 17.3618 7.50235 16.9852C7.37975 16.6087 7.14106 16.2806 6.8205 16.048L1.57252 12.2363C0.104438 11.1676 0.860042 8.84262 2.67499 8.84262H9.16418C9.55988 8.84273 9.94548 8.71764 10.2658 8.48526C10.586 8.25287 10.8246 7.92512 10.9473 7.54891L12.9535 1.37658L12.9516 1.37471Z" fill="#F2AE00"/>
<path d="M52.5457 1.37471C53.1082 -0.352117 55.5512 -0.352117 56.1118 1.37471L58.118 7.54704C58.2406 7.92294 58.4789 8.25048 58.7988 8.48283C59.1187 8.71518 59.5038 8.84046 59.8992 8.84075H66.3903C68.2071 8.84075 68.9608 11.1657 67.4928 12.2344L62.2429 16.048C61.9223 16.2806 61.6836 16.6087 61.561 16.9852C61.4384 17.3618 61.4382 17.7675 61.5604 18.1442L63.5666 24.3166C64.1291 26.0434 62.151 27.4815 60.6792 26.4128L55.4293 22.5991C55.1091 22.3666 54.7235 22.2414 54.3278 22.2414C53.9321 22.2414 53.5465 22.3666 53.2263 22.5991L47.9764 26.4128C46.5065 27.4815 44.5303 26.0434 45.0909 24.3166L47.0971 18.1442C47.2193 17.7675 47.2191 17.3618 47.0965 16.9852C46.9739 16.6087 46.7352 16.2806 46.4146 16.048L41.1666 12.2363C39.6985 11.1676 40.4541 8.84262 42.2691 8.84262H48.7583C49.154 8.84273 49.5396 8.71764 49.8599 8.48526C50.1801 8.25287 50.4187 7.92512 50.5414 7.54891L52.5476 1.37658L52.5457 1.37471Z" fill="#F2AE00"/>
<path d="M92.1398 1.37471C92.7022 -0.352117 95.1453 -0.352117 95.7059 1.37471L97.7121 7.54704C97.8347 7.92294 98.0729 8.25048 98.3928 8.48283C98.7127 8.71518 99.0979 8.84046 99.4933 8.84075H105.984C107.801 8.84075 108.555 11.1657 107.087 12.2344L101.837 16.048C101.516 16.2806 101.278 16.6087 101.155 16.9852C101.033 17.3618 101.032 17.7675 101.155 18.1442L103.161 24.3166C103.723 26.0434 101.745 27.4815 100.273 26.4128L95.0234 22.5991C94.7032 22.3666 94.3176 22.2414 93.9219 22.2414C93.5262 22.2414 93.1406 22.3666 92.8204 22.5991L87.5705 26.4128C86.1006 27.4815 84.1244 26.0434 84.685 24.3166L86.6912 18.1442C86.8134 17.7675 86.8131 17.3618 86.6905 16.9852C86.5679 16.6087 86.3292 16.2806 86.0087 16.048L80.7607 12.2363C79.2926 11.1676 80.0482 8.84262 81.8632 8.84262H88.3524C88.7481 8.84273 89.1337 8.71764 89.4539 8.48526C89.7742 8.25287 90.0128 7.92512 90.1354 7.54891L92.1416 1.37658L92.1398 1.37471Z" fill="#F2AE00"/>
<path d="M131.734 1.37471C132.296 -0.352117 134.739 -0.352117 135.3 1.37471L137.306 7.54704C137.429 7.92294 137.667 8.25048 137.987 8.48283C138.307 8.71518 138.692 8.84046 139.087 8.84075H145.578C147.395 8.84075 148.149 11.1657 146.681 12.2344L141.431 16.048C141.111 16.2806 140.872 16.6087 140.749 16.9852C140.627 17.3618 140.626 17.7675 140.749 18.1442L142.755 24.3166C143.317 26.0434 141.339 27.4815 139.867 26.4128L134.618 22.5991C134.297 22.3666 133.912 22.2414 133.516 22.2414C133.12 22.2414 132.735 22.3666 132.414 22.5991L127.165 26.4128C125.695 27.4815 123.718 26.0434 124.279 24.3166L126.285 18.1442C126.407 17.7675 126.407 17.3618 126.285 16.9852C126.162 16.6087 125.923 16.2806 125.603 16.048L120.355 12.2363C118.887 11.1676 119.642 8.84262 121.457 8.84262H127.946C128.342 8.84273 128.728 8.71764 129.048 8.48526C129.368 8.25287 129.607 7.92512 129.73 7.54891L131.736 1.37658L131.734 1.37471Z" fill="#F2AE00"/>
<path d="M171.328 1.37471C171.89 -0.352117 174.334 -0.352117 174.894 1.37471L176.9 7.54704C177.023 7.92294 177.261 8.25048 177.581 8.48283C177.901 8.71518 178.286 8.84046 178.682 8.84075H185.173C186.989 8.84075 187.743 11.1657 186.275 12.2344L181.025 16.048C180.705 16.2806 180.466 16.6087 180.343 16.9852C180.221 17.3618 180.221 17.7675 180.343 18.1442L182.349 24.3166C182.911 26.0434 180.933 27.4815 179.461 26.4128L174.212 22.5991C173.891 22.3666 173.506 22.2414 173.11 22.2414C172.714 22.2414 172.329 22.3666 172.009 22.5991L166.759 26.4128C165.289 27.4815 163.313 26.0434 163.873 24.3166L165.879 18.1442C166.002 17.7675 166.001 17.3618 165.879 16.9852C165.756 16.6087 165.517 16.2806 165.197 16.048L159.949 12.2363C158.481 11.1676 159.236 8.84262 161.051 8.84262H167.541C167.936 8.84273 168.322 8.71764 168.642 8.48526C168.962 8.25287 169.201 7.92512 169.324 7.54891L171.33 1.37658L171.328 1.37471Z" fill="#F2AE00"/>
</svg>
